/vscmnt/brussel_pixiu_data/_data_brussel/112/vsc11236/PredSimResults/SUBJ11mtu3D/weighted-expIG/worker_04.mot
version=1
nRows=5
nColumns=50
inDegrees=yes
endheader
                time	         pelvis_tilt	         pelvis_list	     pelvis_rotation	           pelvis_tx	           pelvis_ty	           pelvis_tz	       hip_flexion_r	     hip_adduction_r	      hip_rotation_r	        knee_angle_r	       ankle_angle_r	         mtp_angle_r	       hip_flexion_l	     hip_adduction_l	      hip_rotation_l	        knee_angle_l	       ankle_angle_l	         mtp_angle_l	    lumbar_extension	      lumbar_bending	     lumbar_rotation	 ercspn_r/activation	 intobl_r/activation	 extobl_r/activation	    abd_r/activation	    add_r/activation	hamstrings_r/activation	bifemsh_r/activation	glut_max_r/activation	iliopsoas_r/activation	rect_fem_r/activation	  vasti_r/activation	gastroc_r/activation	 soleus_r/activation	tib_ant_r/activation	 ercspn_l/activation	 intobl_l/activation	 extobl_l/activation	    abd_l/activation	    add_l/activation	hamstrings_l/activation	bifemsh_l/activation	glut_max_l/activation	iliopsoas_l/activation	rect_fem_l/activation	  vasti_l/activation	gastroc_l/activation	 soleus_l/activation	tib_ant_l/activation	
          0.00000000	         -6.07555732	         -5.12376824	          8.30317828	          0.00000000	          0.94181517	         -0.01792303	         31.04672515	          1.49701733	         -4.51185356	         -4.14369300	          5.46409120	          0.20835581	        -11.58580357	         -5.52681261	          4.75423958	         -7.08907696	         12.75743870	         26.15400583	         -3.80829219	          3.11811401	         -2.05781463	          0.09049682	          0.15084063	          0.02824175	          0.01236893	          0.10224855	          0.04548763	          0.19342693	          0.01209209	          0.09164100	          0.01428743	          0.01000000	          0.01554179	          0.00999999	          0.28269542	          0.02710607	          0.00999999	          0.01000000	          0.05478466	          0.02704000	          0.02859060	          0.13611064	          0.05478480	          0.44295055	          0.01000002	          0.01000001	          0.36133044	          0.26411294	          0.01050619	
          0.01421363	         -6.21284181	         -4.94498403	          8.34914007	          0.01767070	          0.93952314	         -0.01714070	         31.15312668	          1.50768158	         -4.55172880	         -5.68818127	          5.01485195	          0.21217846	        -11.88929031	         -5.42319719	          4.37257288	         -8.28121739	         12.30951625	         28.07658415	         -3.50565116	          3.37426013	         -2.24161597	          0.07316459	          0.12195127	          0.02283280	          0.01000000	          0.14978820	          0.04558886	          0.15638122	          0.05943088	          0.07408962	          0.01155106	          0.01000000	          0.02209857	          0.01529907	          0.29463832	          0.06732613	          0.01000000	          0.01000001	          0.04429213	          0.05416493	          0.02311486	          0.11004231	          0.04429225	          0.45314352	          0.01000005	          0.01000001	          0.33269621	          0.25180336	          0.00999999	
          0.02842726	         -6.32609529	         -4.75602297	          8.34184426	          0.03577586	          0.93754322	         -0.01627430	         31.04457511	          1.50376884	         -4.56062890	         -7.15672814	          4.55686016	          0.18618666	        -12.03069575	         -5.29721348	          3.96732711	         -9.84737477	         11.73832725	         30.10032737	         -3.18627253	          3.63498371	         -2.40564050	          0.07105224	          0.09859479	          0.01845979	          0.05898786	          0.14269129	          0.05422149	          0.12643063	          0.08007145	          0.05989975	          0.01000000	          0.00999999	          0.01786618	          0.01236895	          0.33694370	          0.07872504	          0.00999999	          0.01000000	          0.03580916	          0.04744942	          0.02329927	          0.08896666	          0.03580926	          0.44354228	          0.01000004	          0.01453616	          0.30169883	          0.23479077	          0.00999999	
          0.04264089	         -6.41711470	         -4.55969312	          8.28364276	          0.05401169	          0.93614753	         -0.01530330	         30.75628528	          1.50335386	         -4.59557925	         -8.33311414	          3.93474194	          0.15635560	        -11.91022914	         -5.15019616	          3.54884849	        -11.90440277	         10.97758846	         32.23410237	         -2.87901346	          3.89825610	         -2.54305004	          0.08120827	          0.07971160	          0.01492431	          0.10930280	          0.16375247	          0.05226011	          0.10221625	          0.10596458	          0.04842756	          0.01000000	          0.01000000	          0.01444440	          0.01000001	          0.36774013	          0.10514654	          0.00999999	          0.01000000	          0.02895088	          0.05429803	          0.02386168	          0.07192749	          0.02895095	          0.42536338	          0.01000007	          0.01328609	          0.24391653	          0.19466110	          0.00999999	
          0.05685452	         -6.48437711	         -4.36253337	          8.17875972	          0.07212221	          0.93549422	         -0.01424522	         30.38748632	          1.51196305	         -4.67200381	         -9.42229573	          3.41828347	          0.12064313	        -11.45258001	         -4.98675663	          3.11118491	        -14.54815580	         10.01174453	         34.38764688	         -2.60443731	          4.17262330	         -2.64813575	          0.07726880	          0.06444499	          0.01206596	          0.13352537	          0.17413032	          0.04898173	          0.08263947	          0.11564103	          0.03915256	          0.01000000	          0.03799001	          0.01167797	          0.01000002	          0.39481938	          0.12968666	          0.00999999	          0.01000000	          0.02340611	          0.07201345	          0.02621011	          0.05815172	          0.02340618	          0.38694035	          0.01000001	          0.01074150	          0.19720087	          0.15737899	          0.00999999	
